<?xml version="1.0" encoding="utf-8"?>
<!-- Generator: Adobe Illustrator 18.0.0, SVG Export Plug-In . SVG Version: 6.00 Build 0)  -->
<!DOCTYPE svg PUBLIC "-//W3C//DTD SVG 1.1//EN" "http://www.w3.org/Graphics/SVG/1.1/DTD/svg11.dtd">
<svg version="1.1" id="Layer_1" xmlns="http://www.w3.org/2000/svg" xmlns:xlink="http://www.w3.org/1999/xlink" x="0px" y="0px"
	 viewBox="0 0 220 220" enable-background="new 0 0 220 220" xml:space="preserve">
<g>
	<path fill="#E9484A" d="M185,182.5c0,2.5-2,4.6-4.6,4.6H39c-2.5,0-4.6-2-4.6-4.6V97.2c0-2.5,2-4.6,4.6-4.6h141.4
		c2.5,0,4.6,2,4.6,4.6V182.5z"/>
	<g>
		<defs>
			<path id="SVGID_1_" d="M184.9,182.5c0,2.5-2,4.6-4.6,4.6H38.9c-2.5,0-4.6-2-4.6-4.6V97.2c0-2.5,2-4.6,4.6-4.6h141.4
				c2.5,0,4.6,2,4.6,4.6V182.5z"/>
		</defs>
		<clipPath id="SVGID_2_">
			<use xlink:href="#SVGID_1_"  overflow="visible"/>
		</clipPath>
		<circle opacity="0.3" clip-path="url(#SVGID_2_)" fill="#231815" cx="109.6" cy="116.7" r="29.5"/>
		<circle opacity="0.3" clip-path="url(#SVGID_2_)" fill="#231815" cx="48" cy="177.5" r="29.5"/>
		<circle opacity="0.3" clip-path="url(#SVGID_2_)" fill="#231815" cx="170.5" cy="177.5" r="29.5"/>
	</g>
	<g>
		<rect x="29.9" y="77.7" fill="#CF4249" width="160" height="30"/>
		<polyline fill="#B33A46" points="29.9,77.7 41.3,66.2 179.1,66.2 189.9,77.7 30.2,77.7 		"/>
	</g>
	<g>
		<g>
			<path fill="#9F9FA0" d="M109.7,71c0,0-56.9,3.4-56.9-25.7c0,0,2.1-15.8,20.4-15.8c0,0,23.9,2.4,36.6,29.4
				c12.6-26.9,36.5-29.4,36.5-29.4c18.2,0,20.4,15.8,20.4,15.8C166.6,74.4,109.6,71,109.7,71 M73.4,40.6c-8.5-0.2-9.3,4.5-9.3,4.5
				c-3.1,15,36.2,16.1,36.2,16.1C88.4,40.8,73.4,40.6,73.4,40.6z M118.9,61.1c0,0,39.3-1.1,36.2-16.1c0,0-0.9-4.7-9.3-4.5
				C145.7,40.6,130.8,40.8,118.9,61.1z"/>
			<ellipse fill="#9F9FA0" cx="109.7" cy="58.7" rx="7.7" ry="4.4"/>
		</g>
		<rect x="98.2" y="67.3" fill="#9F9FA0" width="22.6" height="20.7"/>
	</g>
	<rect x="34.5" y="107.7" opacity="0.3" fill="#231815" width="150.4" height="5.8"/>
	<rect x="98.2" y="77.7" fill="#F0EFEF" width="22.6" height="109.8"/>
</g>
</svg>
